Coordinates
version=1
nRows=27
nColumns=12
inDegrees=yes

Units are S.I. units (second, meters, Newtons, ...)
Angles are in degrees

endheader
time	SC_y	SC_z	SC_x	AC_y	AC_z	AC_x	GH_y	GH_z	GH_yy	EL_x	PS_y
       0.0              -51.95          25.73          53.08          38.15         0.4685         -2.373          60.44          -11.7         -99.62          118.8          106.5
   0.04235              -51.95          25.73          53.08          38.15         0.4673         -2.373          60.43         -11.68         -99.58          118.8          106.5
    0.0847              -51.94          25.73          53.08          38.15         0.4661         -2.372          60.42         -11.67         -99.54          118.8          106.5
    0.1271              -51.93          25.72          53.07          38.15         0.4647         -2.372          60.41         -11.65          -99.5          118.8          106.5
    0.1694              -51.93          25.72          53.07          38.14         0.4633         -2.372           60.4         -11.64         -99.45          118.8          106.5
    0.2118              -51.92          25.72          53.07          38.14         0.4617         -2.372          60.39         -11.62         -99.41          118.7          106.5
    0.2541              -51.91          25.71          53.07          38.14         0.4601         -2.372          60.37          -11.6         -99.36          118.7          106.5
    0.2965               -51.9          25.71          53.06          38.14         0.4584         -2.372          60.36         -11.58          -99.3          118.7          106.6
    0.3388              -51.89          25.71          53.06          38.14         0.4565         -2.371          60.34         -11.56         -99.24          118.7          106.6
    0.3812              -51.88           25.7          53.06          38.14         0.4545         -2.371          60.33         -11.53         -99.18          118.7          106.6
    0.4235              -51.87           25.7          53.05          38.14         0.4523         -2.371          60.31         -11.51         -99.11          118.6          106.6
    0.4659              -51.86          25.69          53.05          38.13           0.45         -2.371          60.29         -11.48         -99.04          118.6          106.6
    0.5082              -51.85          25.69          53.05          38.13         0.4475          -2.37          60.27         -11.45         -98.97          118.6          106.6
    0.5506              -51.84          25.68          53.04          38.13         0.4448          -2.37          60.25         -11.42         -98.88          118.5          106.6
    0.5929              -51.82          25.68          53.04          38.13         0.4419          -2.37          60.23         -11.38         -98.79          118.5          106.6
    0.6353              -51.81          25.67          53.03          38.12         0.4387          -2.37          60.21         -11.35         -98.69          118.5          106.6
    0.6776              -51.79          25.66          53.03          38.12         0.4352         -2.369          60.18         -11.31         -98.58          118.4          106.6
      0.72              -51.77          25.65          53.02          38.12         0.4315         -2.369          60.15         -11.26         -98.47          118.4          106.6
    0.7623              -51.75          25.65          53.02          38.11         0.4274         -2.368          60.12         -11.21         -98.34          118.3          106.7
    0.8047              -51.73          25.64          53.01          38.11         0.4229         -2.368          60.08         -11.16          -98.2          118.3          106.7
     0.847               -51.7          25.63           53.0          38.11         0.4179         -2.367          60.04          -11.1         -98.05          118.2          106.7
    0.8894              -51.68          25.61          52.99           38.1         0.4125         -2.367           60.0         -11.04         -97.88          118.2          106.7
    0.9317              -51.65           25.6          52.99           38.1         0.4065         -2.366          59.95         -10.97         -97.69          118.1          106.7
    0.9741              -51.62          25.59          52.98          38.09         0.3999         -2.365           59.9         -10.89         -97.49          118.0          106.8
     1.016              -51.58          25.57          52.96          38.09         0.3925         -2.365          59.84          -10.8         -97.26          117.9          106.8
     1.059              -51.54          25.55          52.95          38.08         0.3842         -2.364          59.78         -10.71          -97.0          117.8          106.8
     1.101              -51.49          25.54          52.94          38.07          0.375         -2.363           59.7          -10.6         -96.72          117.7          106.8
